<svg width="1280" height="720" viewBox="0 0 1280 720" xmlns="http://www.w3.org/2000/svg">
  <defs>
    <linearGradient id="bg" x1="0%" y1="0%" x2="100%" y2="100%"><stop offset="0%" style="stop-color:#060610"/><stop offset="100%" style="stop-color:#0d0d1f"/></linearGradient>
    <linearGradient id="accent" x1="0%" y1="0%" x2="100%" y2="0%"><stop offset="0%" style="stop-color:#00c6ff"/><stop offset="50%" style="stop-color:#8b5cf6"/><stop offset="100%" style="stop-color:#f59e0b"/></linearGradient>
  </defs>
  <rect width="1280" height="720" fill="url(#bg)"/>
  <g stroke="rgba(255,255,255,0.025)" stroke-width="1">
    <line x1="0" y1="60" x2="1280" y2="60"/><line x1="0" y1="120" x2="1280" y2="120"/><line x1="0" y1="180" x2="1280" y2="180"/><line x1="0" y1="240" x2="1280" y2="240"/><line x1="0" y1="300" x2="1280" y2="300"/><line x1="0" y1="360" x2="1280" y2="360"/><line x1="0" y1="420" x2="1280" y2="420"/><line x1="0" y1="480" x2="1280" y2="480"/><line x1="0" y1="540" x2="1280" y2="540"/><line x1="0" y1="600" x2="1280" y2="600"/><line x1="0" y1="660" x2="1280" y2="660"/>
    <line x1="60" y1="0" x2="60" y2="720"/><line x1="180" y1="0" x2="180" y2="720"/><line x1="300" y1="0" x2="300" y2="720"/><line x1="420" y1="0" x2="420" y2="720"/><line x1="540" y1="0" x2="540" y2="720"/><line x1="660" y1="0" x2="660" y2="720"/><line x1="780" y1="0" x2="780" y2="720"/><line x1="900" y1="0" x2="900" y2="720"/><line x1="1020" y1="0" x2="1020" y2="720"/><line x1="1140" y1="0" x2="1140" y2="720"/>
  </g>
  <!-- Header -->
  <rect x="0" y="0" width="1280" height="60" fill="rgba(13,13,31,0.95)" stroke="rgba(255,255,255,0.06)" stroke-width="1"/>
  <text x="30" y="38" fill="url(#accent)" font-family="sans-serif" font-weight="800" font-size="16">⚡ Kravmaga</text>
  <text x="160" y="38" fill="#00c6ff" font-family="sans-serif" font-size="13" font-weight="600">Miembros</text>
  <text x="260" y="38" fill="rgba(228,228,240,0.4)" font-family="sans-serif" font-size="13">Pagos</text>
  <text x="340" y="38" fill="rgba(228,228,240,0.4)" font-family="sans-serif" font-size="13">Clases</text>
  <!-- Search bar -->
  <rect x="30" y="80" width="320" height="40" rx="8" fill="rgba(255,255,255,0.05)" stroke="rgba(255,255,255,0.1)" stroke-width="1"/>
  <text x="50" y="105" fill="rgba(228,228,240,0.4)" font-family="sans-serif" font-size="13">🔍  Buscar miembro...</text>
  <rect x="1100" y="80" width="150" height="40" rx="20" fill="url(#accent)" opacity="0.9"/>
  <text x="1175" y="105" fill="white" font-family="sans-serif" font-size="13" font-weight="600" text-anchor="middle">+ Nuevo miembro</text>
  <!-- Table header -->
  <rect x="30" y="140" width="1220" height="40" rx="8" fill="rgba(255,255,255,0.05)" stroke="rgba(255,255,255,0.06)" stroke-width="1"/>
  <text x="60" y="165" fill="rgba(228,228,240,0.5)" font-family="sans-serif" font-size="12" font-weight="600">NOMBRE</text>
  <text x="360" y="165" fill="rgba(228,228,240,0.5)" font-family="sans-serif" font-size="12" font-weight="600">MEMBRESÍA</text>
  <text x="560" y="165" fill="rgba(228,228,240,0.5)" font-family="sans-serif" font-size="12" font-weight="600">VENCIMIENTO</text>
  <text x="760" y="165" fill="rgba(228,228,240,0.5)" font-family="sans-serif" font-size="12" font-weight="600">ESTADO</text>
  <text x="960" y="165" fill="rgba(228,228,240,0.5)" font-family="sans-serif" font-size="12" font-weight="600">ASISTENCIA</text>
  <text x="1160" y="165" fill="rgba(228,228,240,0.5)" font-family="sans-serif" font-size="12" font-weight="600">ACCIÓN</text>
  <!-- Table rows -->
  <rect x="30" y="188" width="1220" height="52" rx="6" fill="rgba(255,255,255,0.02)"/>
  <circle cx="60" cy="214" r="16" fill="rgba(0,198,255,0.2)"/><text x="60" y="220" fill="#00c6ff" font-family="sans-serif" font-size="13" font-weight="600" text-anchor="middle">CM</text>
  <text x="90" y="210" fill="rgba(228,228,240,0.9)" font-family="sans-serif" font-size="13" font-weight="500">Carlos Mendoza</text>
  <text x="90" y="228" fill="rgba(228,228,240,0.4)" font-family="sans-serif" font-size="11">carlos@email.com</text>
  <text x="360" y="218" fill="rgba(228,228,240,0.8)" font-family="sans-serif" font-size="13">Mensual Plus</text>
  <text x="560" y="218" fill="rgba(228,228,240,0.8)" font-family="sans-serif" font-size="13">15 Jun 2025</text>
  <rect x="760" y="202" width="72" height="24" rx="12" fill="rgba(74,222,128,0.12)" stroke="rgba(74,222,128,0.25)" stroke-width="1"/>
  <text x="796" y="219" fill="rgba(74,222,128,0.9)" font-family="sans-serif" font-size="11" font-weight="600" text-anchor="middle">Activo</text>
  <text x="960" y="218" fill="rgba(228,228,240,0.8)" font-family="sans-serif" font-size="13">18 / 20 clases</text>

  <rect x="30" y="248" width="1220" height="52" rx="6" fill="rgba(255,255,255,0.01)"/>
  <circle cx="60" cy="274" r="16" fill="rgba(139,92,246,0.2)"/><text x="60" y="280" fill="#8b5cf6" font-family="sans-serif" font-size="13" font-weight="600" text-anchor="middle">AL</text>
  <text x="90" y="270" fill="rgba(228,228,240,0.9)" font-family="sans-serif" font-size="13" font-weight="500">Ana López</text>
  <text x="90" y="288" fill="rgba(228,228,240,0.4)" font-family="sans-serif" font-size="11">ana@email.com</text>
  <text x="360" y="278" fill="rgba(228,228,240,0.8)" font-family="sans-serif" font-size="13">Trimestral</text>
  <text x="560" y="278" fill="rgba(228,228,240,0.8)" font-family="sans-serif" font-size="13">30 Jul 2025</text>
  <rect x="760" y="262" width="72" height="24" rx="12" fill="rgba(74,222,128,0.12)" stroke="rgba(74,222,128,0.25)" stroke-width="1"/>
  <text x="796" y="279" fill="rgba(74,222,128,0.9)" font-family="sans-serif" font-size="11" font-weight="600" text-anchor="middle">Activo</text>
  <text x="960" y="278" fill="rgba(228,228,240,0.8)" font-family="sans-serif" font-size="13">42 / 48 clases</text>

  <rect x="30" y="308" width="1220" height="52" rx="6" fill="rgba(255,255,255,0.02)"/>
  <circle cx="60" cy="334" r="16" fill="rgba(245,158,11,0.2)"/><text x="60" y="340" fill="#f59e0b" font-family="sans-serif" font-size="13" font-weight="600" text-anchor="middle">RK</text>
  <text x="90" y="330" fill="rgba(228,228,240,0.9)" font-family="sans-serif" font-size="13" font-weight="500">Roberto Kaplán</text>
  <text x="90" y="348" fill="rgba(228,228,240,0.4)" font-family="sans-serif" font-size="11">roberto@email.com</text>
  <text x="360" y="338" fill="rgba(228,228,240,0.8)" font-family="sans-serif" font-size="13">Mensual Básico</text>
  <text x="560" y="338" fill="rgba(245,158,11,0.9)" font-family="sans-serif" font-size="13">⚠ 3 Jun 2025</text>
  <rect x="760" y="322" width="90" height="24" rx="12" fill="rgba(245,158,11,0.12)" stroke="rgba(245,158,11,0.25)" stroke-width="1"/>
  <text x="805" y="339" fill="rgba(245,158,11,0.9)" font-family="sans-serif" font-size="11" font-weight="600" text-anchor="middle">Por vencer</text>
  <text x="960" y="338" fill="rgba(228,228,240,0.8)" font-family="sans-serif" font-size="13">8 / 20 clases</text>

  <rect x="30" y="368" width="1220" height="52" rx="6" fill="rgba(255,255,255,0.01)"/>
  <circle cx="60" cy="394" r="16" fill="rgba(255,255,255,0.08)"/><text x="60" y="400" fill="rgba(228,228,240,0.5)" font-family="sans-serif" font-size="13" font-weight="600" text-anchor="middle">MR</text>
  <text x="90" y="390" fill="rgba(228,228,240,0.9)" font-family="sans-serif" font-size="13" font-weight="500">María Rodríguez</text>
  <text x="90" y="408" fill="rgba(228,228,240,0.4)" font-family="sans-serif" font-size="11">maria@email.com</text>
  <text x="360" y="398" fill="rgba(228,228,240,0.8)" font-family="sans-serif" font-size="13">Anual</text>
  <text x="560" y="398" fill="rgba(228,228,240,0.8)" font-family="sans-serif" font-size="13">12 Ene 2026</text>
  <rect x="760" y="382" width="72" height="24" rx="12" fill="rgba(74,222,128,0.12)" stroke="rgba(74,222,128,0.25)" stroke-width="1"/>
  <text x="796" y="399" fill="rgba(74,222,128,0.9)" font-family="sans-serif" font-size="11" font-weight="600" text-anchor="middle">Activo</text>
  <text x="960" y="398" fill="rgba(228,228,240,0.8)" font-family="sans-serif" font-size="13">156 / ∞ clases</text>

  <text x="640" y="710" fill="rgba(228,228,240,0.12)" font-family="sans-serif" font-size="12" text-anchor="middle">[ Gestión de Miembros — Reemplaza con captura real ]</text>
</svg>
