<svg width="1280" height="720" viewBox="0 0 1280 720" xmlns="http://www.w3.org/2000/svg">
  <defs>
    <linearGradient id="bg" x1="0%" y1="0%" x2="100%" y2="100%"><stop offset="0%" style="stop-color:#060610"/><stop offset="100%" style="stop-color:#0d0d1f"/></linearGradient>
    <linearGradient id="accent" x1="0%" y1="0%" x2="100%" y2="0%"><stop offset="0%" style="stop-color:#00c6ff"/><stop offset="50%" style="stop-color:#8b5cf6"/><stop offset="100%" style="stop-color:#f59e0b"/></linearGradient>
  </defs>
  <rect width="1280" height="720" fill="url(#bg)"/>
  <g stroke="rgba(255,255,255,0.025)" stroke-width="1">
    <line x1="0" y1="60" x2="1280" y2="60"/><line x1="0" y1="120" x2="1280" y2="120"/><line x1="0" y1="180" x2="1280" y2="180"/><line x1="0" y1="240" x2="1280" y2="240"/><line x1="0" y1="300" x2="1280" y2="300"/><line x1="0" y1="360" x2="1280" y2="360"/><line x1="0" y1="420" x2="1280" y2="420"/><line x1="0" y1="480" x2="1280" y2="480"/><line x1="0" y1="540" x2="1280" y2="540"/><line x1="0" y1="600" x2="1280" y2="600"/>
    <line x1="60" y1="0" x2="60" y2="720"/><line x1="180" y1="0" x2="180" y2="720"/><line x1="300" y1="0" x2="300" y2="720"/><line x1="420" y1="0" x2="420" y2="720"/><line x1="540" y1="0" x2="540" y2="720"/><line x1="660" y1="0" x2="660" y2="720"/><line x1="780" y1="0" x2="780" y2="720"/><line x1="900" y1="0" x2="900" y2="720"/><line x1="1020" y1="0" x2="1020" y2="720"/><line x1="1140" y1="0" x2="1140" y2="720"/>
  </g>
  <rect x="0" y="0" width="1280" height="60" fill="rgba(13,13,31,0.95)" stroke="rgba(255,255,255,0.06)" stroke-width="1"/>
  <text x="30" y="38" fill="url(#accent)" font-family="sans-serif" font-weight="800" font-size="16">⚡ Kravmaga</text>
  <text x="160" y="38" fill="rgba(228,228,240,0.4)" font-family="sans-serif" font-size="13">Miembros</text>
  <text x="260" y="38" fill="rgba(228,228,240,0.4)" font-family="sans-serif" font-size="13">Pagos</text>
  <text x="340" y="38" fill="#f59e0b" font-family="sans-serif" font-size="13" font-weight="600">Asistencia</text>
  <!-- Clase del día -->
  <text x="30" y="95" fill="rgba(228,228,240,0.9)" font-family="sans-serif" font-weight="700" font-size="15">Domingo 4 May — Registro de Asistencia</text>
  <!-- Clase cards -->
  <rect x="30" y="112" width="380" height="580" rx="12" fill="rgba(0,198,255,0.04)" stroke="rgba(0,198,255,0.15)" stroke-width="1"/>
  <text x="50" y="144" fill="#00c6ff" font-family="sans-serif" font-weight="700" font-size="14">🥋 Krav Maga Básico</text>
  <text x="50" y="164" fill="rgba(228,228,240,0.5)" font-family="sans-serif" font-size="12">09:00 – 10:30 hrs · Instructor: Marco R.</text>
  <rect x="300" y="124" width="80" height="28" rx="14" fill="rgba(74,222,128,0.12)" stroke="rgba(74,222,128,0.25)" stroke-width="1"/>
  <text x="340" y="143" fill="rgba(74,222,128,0.9)" font-family="sans-serif" font-size="11" font-weight="600" text-anchor="middle">En curso</text>
  <line x1="50" y1="178" x2="390" y2="178" stroke="rgba(255,255,255,0.06)" stroke-width="1"/>
  <!-- attendees -->
  <text x="50" y="200" fill="rgba(228,228,240,0.5)" font-family="sans-serif" font-size="11">ASISTENTES (12 / 20)</text>
  <g>
    <circle cx="68" cy="232" r="18" fill="rgba(0,198,255,0.2)"/><text x="68" y="238" fill="#00c6ff" font-family="sans-serif" font-size="12" font-weight="600" text-anchor="middle">CM</text><rect x="94" y="222" width="260" height="20" rx="0" fill="none"/><text x="100" y="236" fill="rgba(228,228,240,0.8)" font-family="sans-serif" font-size="13">Carlos Mendoza</text><circle cx="358" cy="232" r="8" fill="rgba(74,222,128,0.3)"/><line x1="354" y1="232" x2="362" y2="232" stroke="rgba(74,222,128,0.9)" stroke-width="2"/><line x1="358" y1="228" x2="358" y2="236" stroke="rgba(74,222,128,0.9)" stroke-width="2"/>
    <circle cx="68" cy="272" r="18" fill="rgba(139,92,246,0.2)"/><text x="68" y="278" fill="#8b5cf6" font-family="sans-serif" font-size="12" font-weight="600" text-anchor="middle">AL</text><text x="100" y="276" fill="rgba(228,228,240,0.8)" font-family="sans-serif" font-size="13">Ana López</text><circle cx="358" cy="272" r="8" fill="rgba(74,222,128,0.3)"/><line x1="354" y1="272" x2="362" y2="272" stroke="rgba(74,222,128,0.9)" stroke-width="2"/><line x1="358" y1="268" x2="358" y2="276" stroke="rgba(74,222,128,0.9)" stroke-width="2"/>
    <circle cx="68" cy="312" r="18" fill="rgba(245,158,11,0.2)"/><text x="68" y="318" fill="#f59e0b" font-family="sans-serif" font-size="12" font-weight="600" text-anchor="middle">MR</text><text x="100" y="316" fill="rgba(228,228,240,0.8)" font-family="sans-serif" font-size="13">María Rodríguez</text><circle cx="358" cy="312" r="8" fill="rgba(74,222,128,0.3)"/><line x1="354" y1="312" x2="362" y2="312" stroke="rgba(74,222,128,0.9)" stroke-width="2"/><line x1="358" y1="308" x2="358" y2="316" stroke="rgba(74,222,128,0.9)" stroke-width="2"/>
    <circle cx="68" cy="352" r="18" fill="rgba(255,255,255,0.08)"/><text x="68" y="358" fill="rgba(228,228,240,0.5)" font-family="sans-serif" font-size="12" font-weight="600" text-anchor="middle">JG</text><text x="100" y="356" fill="rgba(228,228,240,0.8)" font-family="sans-serif" font-size="13">José García</text><circle cx="358" cy="352" r="8" fill="rgba(248,113,113,0.3)"/><line x1="354" y1="348" x2="362" y2="356" stroke="rgba(248,113,113,0.9)" stroke-width="2"/><line x1="354" y1="356" x2="362" y2="348" stroke="rgba(248,113,113,0.9)" stroke-width="2"/>
    <circle cx="68" cy="392" r="18" fill="rgba(0,198,255,0.15)"/><text x="68" y="398" fill="rgba(0,198,255,0.7)" font-family="sans-serif" font-size="12" font-weight="600" text-anchor="middle">LM</text><text x="100" y="396" fill="rgba(228,228,240,0.8)" font-family="sans-serif" font-size="13">Laura Martínez</text><circle cx="358" cy="392" r="8" fill="rgba(74,222,128,0.3)"/><line x1="354" y1="392" x2="362" y2="392" stroke="rgba(74,222,128,0.9)" stroke-width="2"/><line x1="358" y1="388" x2="358" y2="396" stroke="rgba(74,222,128,0.9)" stroke-width="2"/>
  </g>
  <!-- Resumen lateral -->
  <rect x="430" y="112" width="820" height="260" rx="12" fill="rgba(255,255,255,0.03)" stroke="rgba(255,255,255,0.06)" stroke-width="1"/>
  <text x="455" y="144" fill="rgba(228,228,240,0.9)" font-family="sans-serif" font-weight="700" font-size="14">Estadísticas de hoy</text>
  <rect x="455" y="160" width="160" height="80" rx="10" fill="rgba(0,198,255,0.08)" stroke="rgba(0,198,255,0.15)" stroke-width="1"/>
  <text x="535" y="192" fill="rgba(228,228,240,0.5)" font-family="sans-serif" font-size="10" text-anchor="middle">TOTAL ASISTENTES</text>
  <text x="535" y="222" fill="#00c6ff" font-family="sans-serif" font-weight="800" font-size="28" text-anchor="middle">38</text>
  <rect x="635" y="160" width="160" height="80" rx="10" fill="rgba(74,222,128,0.08)" stroke="rgba(74,222,128,0.15)" stroke-width="1"/>
  <text x="715" y="192" fill="rgba(228,228,240,0.5)" font-family="sans-serif" font-size="10" text-anchor="middle">CLASES HOY</text>
  <text x="715" y="222" fill="rgba(74,222,128,0.9)" font-family="sans-serif" font-weight="800" font-size="28" text-anchor="middle">6</text>
  <rect x="815" y="160" width="160" height="80" rx="10" fill="rgba(139,92,246,0.08)" stroke="rgba(139,92,246,0.15)" stroke-width="1"/>
  <text x="895" y="192" fill="rgba(228,228,240,0.5)" font-family="sans-serif" font-size="10" text-anchor="middle">PROMEDIO / CLASE</text>
  <text x="895" y="222" fill="#8b5cf6" font-family="sans-serif" font-weight="800" font-size="28" text-anchor="middle">6.3</text>

  <text x="640" y="710" fill="rgba(228,228,240,0.12)" font-family="sans-serif" font-size="12" text-anchor="middle">[ Registro de Asistencia — Reemplaza con captura real ]</text>
</svg>
