<svg width="1280" height="720" viewBox="0 0 1280 720" xmlns="http://www.w3.org/2000/svg">
  <defs>
    <linearGradient id="bg" x1="0%" y1="0%" x2="100%" y2="100%"><stop offset="0%" style="stop-color:#060610"/><stop offset="100%" style="stop-color:#0d0d1f"/></linearGradient>
    <linearGradient id="accent" x1="0%" y1="0%" x2="100%" y2="0%"><stop offset="0%" style="stop-color:#00c6ff"/><stop offset="50%" style="stop-color:#8b5cf6"/><stop offset="100%" style="stop-color:#f59e0b"/></linearGradient>
  </defs>
  <rect width="1280" height="720" fill="url(#bg)"/>
  <g stroke="rgba(255,255,255,0.025)" stroke-width="1">
    <line x1="0" y1="60" x2="1280" y2="60"/><line x1="0" y1="120" x2="1280" y2="120"/><line x1="0" y1="180" x2="1280" y2="180"/><line x1="0" y1="240" x2="1280" y2="240"/><line x1="0" y1="300" x2="1280" y2="300"/><line x1="0" y1="360" x2="1280" y2="360"/><line x1="0" y1="420" x2="1280" y2="420"/><line x1="0" y1="480" x2="1280" y2="480"/><line x1="0" y1="540" x2="1280" y2="540"/><line x1="0" y1="600" x2="1280" y2="600"/>
    <line x1="60" y1="0" x2="60" y2="720"/><line x1="180" y1="0" x2="180" y2="720"/><line x1="300" y1="0" x2="300" y2="720"/><line x1="420" y1="0" x2="420" y2="720"/><line x1="540" y1="0" x2="540" y2="720"/><line x1="660" y1="0" x2="660" y2="720"/><line x1="780" y1="0" x2="780" y2="720"/><line x1="900" y1="0" x2="900" y2="720"/><line x1="1020" y1="0" x2="1020" y2="720"/><line x1="1140" y1="0" x2="1140" y2="720"/>
  </g>
  <rect x="0" y="0" width="1280" height="60" fill="rgba(13,13,31,0.95)" stroke="rgba(255,255,255,0.06)" stroke-width="1"/>
  <text x="30" y="38" fill="url(#accent)" font-family="sans-serif" font-weight="800" font-size="16">⚡ Kravmaga</text>
  <text x="160" y="38" fill="rgba(228,228,240,0.4)" font-family="sans-serif" font-size="13">Miembros</text>
  <text x="260" y="38" fill="#8b5cf6" font-family="sans-serif" font-size="13" font-weight="600">Pagos</text>
  <!-- Resumen de pagos -->
  <rect x="30" y="80" width="280" height="120" rx="12" fill="rgba(74,222,128,0.05)" stroke="rgba(74,222,128,0.2)" stroke-width="1"/>
  <text x="50" y="108" fill="rgba(228,228,240,0.5)" font-family="sans-serif" font-size="11">COBRADO HOY</text>
  <text x="50" y="148" fill="rgba(74,222,128,0.9)" font-family="sans-serif" font-weight="800" font-size="36">$3,200</text>
  <text x="50" y="180" fill="rgba(228,228,240,0.4)" font-family="sans-serif" font-size="11">4 transacciones</text>

  <rect x="330" y="80" width="280" height="120" rx="12" fill="rgba(245,158,11,0.05)" stroke="rgba(245,158,11,0.2)" stroke-width="1"/>
  <text x="350" y="108" fill="rgba(228,228,240,0.5)" font-family="sans-serif" font-size="11">PENDIENTE DE COBRO</text>
  <text x="350" y="148" fill="rgba(245,158,11,0.9)" font-family="sans-serif" font-weight="800" font-size="36">$7,800</text>
  <text x="350" y="180" fill="rgba(228,228,240,0.4)" font-family="sans-serif" font-size="11">11 miembros</text>

  <rect x="630" y="80" width="280" height="120" rx="12" fill="rgba(139,92,246,0.05)" stroke="rgba(139,92,246,0.2)" stroke-width="1"/>
  <text x="650" y="108" fill="rgba(228,228,240,0.5)" font-family="sans-serif" font-size="11">TOTAL MAYO</text>
  <text x="650" y="148" fill="#8b5cf6" font-family="sans-serif" font-weight="800" font-size="36">$24,800</text>
  <text x="650" y="180" fill="rgba(74,222,128,0.8)" font-family="sans-serif" font-size="11">↑ 12% vs Abril</text>

  <!-- Payment list -->
  <rect x="30" y="220" width="880" height="44" rx="8" fill="rgba(255,255,255,0.05)"/>
  <text x="60" y="248" fill="rgba(228,228,240,0.5)" font-family="sans-serif" font-size="12" font-weight="600">MIEMBRO</text>
  <text x="360" y="248" fill="rgba(228,228,240,0.5)" font-family="sans-serif" font-size="12" font-weight="600">CONCEPTO</text>
  <text x="580" y="248" fill="rgba(228,228,240,0.5)" font-family="sans-serif" font-size="12" font-weight="600">MONTO</text>
  <text x="700" y="248" fill="rgba(228,228,240,0.5)" font-family="sans-serif" font-size="12" font-weight="600">FECHA</text>
  <text x="820" y="248" fill="rgba(228,228,240,0.5)" font-family="sans-serif" font-size="12" font-weight="600">ESTADO</text>

  <rect x="30" y="272" width="880" height="48" rx="6" fill="rgba(255,255,255,0.02)"/>
  <text x="60" y="302" fill="rgba(228,228,240,0.85)" font-family="sans-serif" font-size="13">Carlos Mendoza</text>
  <text x="360" y="302" fill="rgba(228,228,240,0.7)" font-family="sans-serif" font-size="13">Mensual Plus — Mayo</text>
  <text x="580" y="302" fill="rgba(74,222,128,0.9)" font-family="sans-serif" font-size="13" font-weight="600">$800</text>
  <text x="700" y="302" fill="rgba(228,228,240,0.5)" font-family="sans-serif" font-size="12">01 Mayo 2025</text>
  <rect x="820" y="284" width="68" height="24" rx="12" fill="rgba(74,222,128,0.12)" stroke="rgba(74,222,128,0.25)" stroke-width="1"/>
  <text x="854" y="301" fill="rgba(74,222,128,0.9)" font-family="sans-serif" font-size="11" font-weight="600" text-anchor="middle">Pagado</text>

  <rect x="30" y="328" width="880" height="48" rx="6" fill="rgba(255,255,255,0.015)"/>
  <text x="60" y="358" fill="rgba(228,228,240,0.85)" font-family="sans-serif" font-size="13">Ana López</text>
  <text x="360" y="358" fill="rgba(228,228,240,0.7)" font-family="sans-serif" font-size="13">Trimestral — Abr-Jun</text>
  <text x="580" y="358" fill="rgba(74,222,128,0.9)" font-family="sans-serif" font-size="13" font-weight="600">$2,100</text>
  <text x="700" y="358" fill="rgba(228,228,240,0.5)" font-family="sans-serif" font-size="12">01 Abr 2025</text>
  <rect x="820" y="340" width="68" height="24" rx="12" fill="rgba(74,222,128,0.12)" stroke="rgba(74,222,128,0.25)" stroke-width="1"/>
  <text x="854" y="357" fill="rgba(74,222,128,0.9)" font-family="sans-serif" font-size="11" font-weight="600" text-anchor="middle">Pagado</text>

  <rect x="30" y="384" width="880" height="48" rx="6" fill="rgba(255,255,255,0.02)"/>
  <text x="60" y="414" fill="rgba(228,228,240,0.85)" font-family="sans-serif" font-size="13">Roberto Kaplán</text>
  <text x="360" y="414" fill="rgba(228,228,240,0.7)" font-family="sans-serif" font-size="13">Mensual Básico — Mayo</text>
  <text x="580" y="414" fill="rgba(245,158,11,0.9)" font-family="sans-serif" font-size="13" font-weight="600">$600</text>
  <text x="700" y="414" fill="rgba(228,228,240,0.5)" font-family="sans-serif" font-size="12">Vence 03 Jun</text>
  <rect x="820" y="396" width="82" height="24" rx="12" fill="rgba(245,158,11,0.12)" stroke="rgba(245,158,11,0.25)" stroke-width="1"/>
  <text x="861" y="413" fill="rgba(245,158,11,0.9)" font-family="sans-serif" font-size="11" font-weight="600" text-anchor="middle">Pendiente</text>

  <text x="640" y="710" fill="rgba(228,228,240,0.12)" font-family="sans-serif" font-size="12" text-anchor="middle">[ Control de Pagos — Reemplaza con captura real ]</text>
</svg>
