<svg width="1280" height="720" viewBox="0 0 1280 720" xmlns="http://www.w3.org/2000/svg">
  <defs>
    <linearGradient id="bg" x1="0%" y1="0%" x2="100%" y2="100%">
      <stop offset="0%" style="stop-color:#060610"/>
      <stop offset="100%" style="stop-color:#0d0d1f"/>
    </linearGradient>
    <linearGradient id="accent" x1="0%" y1="0%" x2="100%" y2="0%">
      <stop offset="0%" style="stop-color:#00c6ff"/>
      <stop offset="50%" style="stop-color:#8b5cf6"/>
      <stop offset="100%" style="stop-color:#f59e0b"/>
    </linearGradient>
  </defs>
  <rect width="1280" height="720" fill="url(#bg)"/>
  <!-- Grid lines -->
  <g stroke="rgba(255,255,255,0.03)" stroke-width="1">
    <line x1="0" y1="60" x2="1280" y2="60"/>
    <line x1="0" y1="120" x2="1280" y2="120"/>
    <line x1="0" y1="180" x2="1280" y2="180"/>
    <line x1="0" y1="240" x2="1280" y2="240"/>
    <line x1="0" y1="300" x2="1280" y2="300"/>
    <line x1="0" y1="360" x2="1280" y2="360"/>
    <line x1="0" y1="420" x2="1280" y2="420"/>
    <line x1="0" y1="480" x2="1280" y2="480"/>
    <line x1="0" y1="540" x2="1280" y2="540"/>
    <line x1="0" y1="600" x2="1280" y2="600"/>
    <line x1="0" y1="660" x2="1280" y2="660"/>
    <line x1="60" y1="0" x2="60" y2="720"/>
    <line x1="120" y1="0" x2="120" y2="720"/>
    <line x1="180" y1="0" x2="180" y2="720"/>
    <line x1="240" y1="0" x2="240" y2="720"/>
    <line x1="300" y1="0" x2="300" y2="720"/>
    <line x1="360" y1="0" x2="360" y2="720"/>
    <line x1="420" y1="0" x2="420" y2="720"/>
    <line x1="480" y1="0" x2="480" y2="720"/>
    <line x1="540" y1="0" x2="540" y2="720"/>
    <line x1="600" y1="0" x2="600" y2="720"/>
    <line x1="660" y1="0" x2="660" y2="720"/>
    <line x1="720" y1="0" x2="720" y2="720"/>
    <line x1="780" y1="0" x2="780" y2="720"/>
    <line x1="840" y1="0" x2="840" y2="720"/>
    <line x1="900" y1="0" x2="900" y2="720"/>
    <line x1="960" y1="0" x2="960" y2="720"/>
    <line x1="1020" y1="0" x2="1020" y2="720"/>
    <line x1="1080" y1="0" x2="1080" y2="720"/>
    <line x1="1140" y1="0" x2="1140" y2="720"/>
    <line x1="1200" y1="0" x2="1200" y2="720"/>
  </g>
  <!-- Sidebar -->
  <rect x="0" y="0" width="220" height="720" fill="rgba(13,13,31,0.9)" rx="0"/>
  <rect x="0" y="0" width="220" height="720" fill="none" stroke="rgba(255,255,255,0.06)" stroke-width="1"/>
  <!-- Logo area -->
  <rect x="20" y="20" width="180" height="44" rx="8" fill="rgba(0,198,255,0.08)" stroke="rgba(0,198,255,0.2)" stroke-width="1"/>
  <text x="110" y="48" fill="url(#accent)" font-family="sans-serif" font-weight="800" font-size="16" text-anchor="middle">⚡ Kravmaga</text>
  <!-- Nav items -->
  <rect x="16" y="84" width="188" height="36" rx="8" fill="rgba(0,198,255,0.12)" stroke="rgba(0,198,255,0.25)" stroke-width="1"/>
  <text x="40" y="107" fill="#00c6ff" font-family="sans-serif" font-size="13" font-weight="600">📊 Dashboard</text>
  <text x="40" y="145" fill="rgba(228,228,240,0.5)" font-family="sans-serif" font-size="13">👥 Miembros</text>
  <text x="40" y="180" fill="rgba(228,228,240,0.5)" font-family="sans-serif" font-size="13">💳 Pagos</text>
  <text x="40" y="215" fill="rgba(228,228,240,0.5)" font-family="sans-serif" font-size="13">🥋 Clases</text>
  <text x="40" y="250" fill="rgba(228,228,240,0.5)" font-family="sans-serif" font-size="13">📋 Asistencia</text>
  <text x="40" y="285" fill="rgba(228,228,240,0.5)" font-family="sans-serif" font-size="13">⚙️ Configuración</text>
  <!-- Main content -->
  <!-- Top bar -->
  <rect x="236" y="20" width="1024" height="44" rx="8" fill="rgba(255,255,255,0.03)" stroke="rgba(255,255,255,0.06)" stroke-width="1"/>
  <text x="256" y="48" fill="rgba(228,228,240,0.9)" font-family="sans-serif" font-weight="700" font-size="15">Dashboard</text>
  <rect x="1160" y="28" width="88" height="28" rx="14" fill="url(#accent)" opacity="0.9"/>
  <text x="1204" y="47" fill="white" font-family="sans-serif" font-size="12" font-weight="600" text-anchor="middle">+ Nuevo</text>
  <!-- Stat cards -->
  <rect x="236" y="84" width="228" height="100" rx="12" fill="rgba(255,255,255,0.04)" stroke="rgba(0,198,255,0.15)" stroke-width="1"/>
  <text x="256" y="112" fill="rgba(228,228,240,0.5)" font-family="sans-serif" font-size="11">MIEMBROS ACTIVOS</text>
  <text x="256" y="148" fill="#00c6ff" font-family="sans-serif" font-weight="800" font-size="32">127</text>
  <text x="256" y="170" fill="rgba(74,222,128,0.8)" font-family="sans-serif" font-size="11">↑ +8 este mes</text>
  <rect x="484" y="84" width="228" height="100" rx="12" fill="rgba(255,255,255,0.04)" stroke="rgba(139,92,246,0.15)" stroke-width="1"/>
  <text x="504" y="112" fill="rgba(228,228,240,0.5)" font-family="sans-serif" font-size="11">INGRESOS DEL MES</text>
  <text x="504" y="148" fill="#8b5cf6" font-family="sans-serif" font-weight="800" font-size="32">$24,800</text>
  <text x="504" y="170" fill="rgba(74,222,128,0.8)" font-family="sans-serif" font-size="11">↑ +12% vs mes anterior</text>
  <rect x="732" y="84" width="228" height="100" rx="12" fill="rgba(255,255,255,0.04)" stroke="rgba(245,158,11,0.15)" stroke-width="1"/>
  <text x="752" y="112" fill="rgba(228,228,240,0.5)" font-family="sans-serif" font-size="11">CLASES HOY</text>
  <text x="752" y="148" fill="#f59e0b" font-family="sans-serif" font-weight="800" font-size="32">6</text>
  <text x="752" y="170" fill="rgba(228,228,240,0.5)" font-family="sans-serif" font-size="11">Próxima: 18:00 hrs</text>
  <rect x="980" y="84" width="268" height="100" rx="12" fill="rgba(255,255,255,0.04)" stroke="rgba(255,255,255,0.07)" stroke-width="1"/>
  <text x="1000" y="112" fill="rgba(228,228,240,0.5)" font-family="sans-serif" font-size="11">MEMBRESÍAS POR VENCER</text>
  <text x="1000" y="148" fill="#e4e4f0" font-family="sans-serif" font-weight="800" font-size="32">14</text>
  <text x="1000" y="170" fill="rgba(248,113,113,0.8)" font-family="sans-serif" font-size="11">⚠ Requieren atención</text>
  <!-- Chart area -->
  <rect x="236" y="204" width="680" height="240" rx="12" fill="rgba(255,255,255,0.03)" stroke="rgba(255,255,255,0.06)" stroke-width="1"/>
  <text x="256" y="230" fill="rgba(228,228,240,0.9)" font-family="sans-serif" font-weight="700" font-size="13">Asistencia mensual</text>
  <!-- Fake bar chart -->
  <rect x="280" y="380" width="40" height="44" rx="4" fill="rgba(0,198,255,0.5)"/>
  <rect x="340" y="360" width="40" height="64" rx="4" fill="rgba(0,198,255,0.6)"/>
  <rect x="400" y="320" width="40" height="104" rx="4" fill="rgba(0,198,255,0.7)"/>
  <rect x="460" y="300" width="40" height="124" rx="4" fill="rgba(0,198,255,0.5)"/>
  <rect x="520" y="330" width="40" height="94" rx="4" fill="rgba(0,198,255,0.65)"/>
  <rect x="580" y="280" width="40" height="144" rx="4" fill="url(#accent)" opacity="0.8"/>
  <rect x="640" y="310" width="40" height="114" rx="4" fill="rgba(0,198,255,0.55)"/>
  <rect x="700" y="350" width="40" height="74" rx="4" fill="rgba(0,198,255,0.45)"/>
  <rect x="760" y="290" width="40" height="134" rx="4" fill="rgba(0,198,255,0.6)"/>
  <rect x="820" y="270" width="40" height="154" rx="4" fill="url(#accent)" opacity="0.9"/>
  <!-- Recent activity table -->
  <rect x="936" y="204" width="312" height="240" rx="12" fill="rgba(255,255,255,0.03)" stroke="rgba(255,255,255,0.06)" stroke-width="1"/>
  <text x="956" y="230" fill="rgba(228,228,240,0.9)" font-family="sans-serif" font-weight="700" font-size="13">Actividad reciente</text>
  <line x1="956" y1="242" x2="1228" y2="242" stroke="rgba(255,255,255,0.06)" stroke-width="1"/>
  <circle cx="968" cy="266" r="6" fill="rgba(0,198,255,0.3)"/>
  <text x="984" y="270" fill="rgba(228,228,240,0.8)" font-family="sans-serif" font-size="12">Carlos M. — renovó membresía</text>
  <text x="984" y="286" fill="rgba(228,228,240,0.35)" font-family="sans-serif" font-size="10">hace 12 minutos</text>
  <circle cx="968" cy="308" r="6" fill="rgba(74,222,128,0.3)"/>
  <text x="984" y="312" fill="rgba(228,228,240,0.8)" font-family="sans-serif" font-size="12">Ana L. — nuevo registro</text>
  <text x="984" y="328" fill="rgba(228,228,240,0.35)" font-family="sans-serif" font-size="10">hace 45 minutos</text>
  <circle cx="968" cy="350" r="6" fill="rgba(245,158,11,0.3)"/>
  <text x="984" y="354" fill="rgba(228,228,240,0.8)" font-family="sans-serif" font-size="12">Clase Avanzado — 14 asistentes</text>
  <text x="984" y="370" fill="rgba(228,228,240,0.35)" font-family="sans-serif" font-size="10">hace 2 horas</text>
  <circle cx="968" cy="392" r="6" fill="rgba(248,113,113,0.3)"/>
  <text x="984" y="396" fill="rgba(228,228,240,0.8)" font-family="sans-serif" font-size="12">Roberto K. — pago pendiente</text>
  <text x="984" y="412" fill="rgba(228,228,240,0.35)" font-family="sans-serif" font-size="10">hace 3 horas</text>
  <!-- Bottom label -->
  <text x="640" y="710" fill="rgba(228,228,240,0.15)" font-family="sans-serif" font-size="12" text-anchor="middle">[ Reemplaza con captura real de tu sistema ]</text>
</svg>
